<?xml version="1.0" encoding="UTF-8" standalone="no"?>
<svg
   id="Layer_1"
   data-name="Layer 1"
   viewBox="0 0 255.99999 256.00001"
   version="1.1"
   sodipodi:docname="delete.svg"
   width="256"
   height="256"
   inkscape:version="1.1.1 (3bf5ae0d25, 2021-09-20)"
   xmlns:inkscape="http://www.inkscape.org/namespaces/inkscape"
   xmlns:sodipodi="http://sodipodi.sourceforge.net/DTD/sodipodi-0.dtd"
   xmlns="http://www.w3.org/2000/svg"
   xmlns:svg="http://www.w3.org/2000/svg"
   xmlns:rdf="http://www.w3.org/1999/02/22-rdf-syntax-ns#"
   xmlns:cc="http://creativecommons.org/ns#"
   xmlns:dc="http://purl.org/dc/elements/1.1/">
  <sodipodi:namedview
     id="namedview11"
     pagecolor="#ffffff"
     bordercolor="#666666"
     borderopacity="1.0"
     inkscape:pageshadow="2"
     inkscape:pageopacity="0.0"
     inkscape:pagecheckerboard="0"
     showgrid="false"
     width="56px"
     inkscape:zoom="2.297446"
     inkscape:cx="83.788693"
     inkscape:cy="156.4781"
     inkscape:window-width="1852"
     inkscape:window-height="1009"
     inkscape:window-x="0"
     inkscape:window-y="0"
     inkscape:window-maximized="1"
     inkscape:current-layer="Layer_1" />
  <defs
     id="defs4">
    <style
       id="style2">.cls-1{fill-rule:evenodd;}</style>
  </defs>
  <title
     id="title6">delete</title>
  <path
     class="cls-1"
     d="M 41.645849,77.498656 H 215.7467 a 17.518534,17.518534 0 0 1 4.17108,0.333687 12.367251,12.367251 0 0 1 6.00636,3.253442 11.324481,11.324481 0 0 1 3.42028,6.965702 15.954379,15.954379 0 0 1 -0.12513,3.003179 L 214.3911,244.65466 v 0 0.27112 0.58396 0 a 14.723911,14.723911 0 0 1 -0.4171,1.87699 v 0 0.12513 0 A 12.283829,12.283829 0 0 1 202.5661,256 H 54.471918 a 12.86778,12.86778 0 0 1 -2.606925,-0.39625 12.86778,12.86778 0 0 1 -2.419226,-1.00106 v 0 A 12.888635,12.888635 0 0 1 43.022304,244.42525 L 28.423526,91.158942 a 16.037801,16.037801 0 0 1 -0.125132,-3.462001 11.199349,11.199349 0 0 1 3.39943,-6.861421 12.513238,12.513238 0 0 1 6.256619,-3.295153 18.644725,18.644725 0 0 1 3.733116,-0.27112 z M 30.133669,18.35275 h 65.631936 v -5.839512 0 a 5.0887169,5.0887169 0 0 1 0,-0.563096 12.513238,12.513238 0 0 1 3.670549,-8.3421583 v 0 A 12.513238,12.513238 0 0 1 108.21627,0 h 40.39691 0.62566 a 12.513238,12.513238 0 0 1 11.88758,12.513238 v 0 0 5.839512 h 66.73727 0.81336 a 9.8020367,9.8020367 0 0 1 8.98868,9.238941 c 0,0.375397 0,0.667372 0,1.042769 v 20.563422 a 5.4015479,5.4015479 0 0 1 -5.40156,5.401548 H 23.751917 a 5.4015479,5.4015479 0 0 1 -5.401548,-5.338981 v -21.043096 0 a 3.2534419,3.2534419 0 0 1 0,-0.646518 v 0 a 9.8437474,9.8437474 0 0 1 8.091895,-9.051243 21.689613,21.689613 0 0 1 3.691405,-0.166842 z m 87.801221,109.90794 a 9.9480241,9.9480241 0 0 1 19.79177,0 v 77.16497 a 9.9480241,9.9480241 0 0 1 -19.79177,0 z m 49.48986,-0.41711 a 9.5517718,9.5517718 0 0 1 10.42769,-8.46729 9.3223623,9.3223623 0 0 1 9.40579,9.30151 l -4.17108,77.16497 a 9.5309165,9.5309165 0 0 1 -10.42769,8.46729 9.3223623,9.3223623 0 0 1 -9.40579,-9.3015 z m -96.935887,0.83422 a 9.3015069,9.3015069 0 0 1 9.384928,-9.30151 9.5517718,9.5517718 0 0 1 10.427699,8.46729 l 4.171079,77.16498 a 9.3223623,9.3223623 0 0 1 -9.405783,9.3015 9.5309165,9.5309165 0 0 1 -10.4277,-8.46729 L 70.468007,128.6778 Z"
     id="path8"
     style="stroke-width:2.08554;fill:#202020;fill-opacity:0.75" />
  <metadata
     id="metadata828">
    <rdf:RDF>
      <cc:Work
         rdf:about="">
        <dc:title>delete</dc:title>
      </cc:Work>
    </rdf:RDF>
  </metadata>
</svg>
