<svg class="svg-icon" style="width: 1em; height: 1em;vertical-align: middle;fill: currentColor;overflow: hidden;" viewBox="0 0 1024 1024" version="1.1" xmlns="http://www.w3.org/2000/svg"><path d="M620.8 704c0-32-12.8-57.6-38.4-83.2L556.8 601.6 556.8 563.2 556.8 473.6 467.2 454.4l0 108.8 0 38.4L441.6 620.8c-25.6 19.2-38.4 51.2-38.4 83.2 0 57.6 51.2 108.8 108.8 108.8S620.8 761.6 620.8 704z"  /><path d="M512 192c38.4 0 64 25.6 64 64l0 307.2 0 25.6 19.2 19.2C627.2 633.6 640 665.6 640 704c0 70.4-57.6 128-128 128s-128-57.6-128-128c0-38.4 12.8-70.4 44.8-96L448 588.8 448 563.2 448 256C448 217.6 473.6 192 512 192M512 128C441.6 128 384 185.6 384 256l0 307.2C345.6 595.2 320 646.4 320 704c0 108.8 83.2 192 192 192s192-83.2 192-192c0-57.6-25.6-108.8-64-140.8L640 256C640 185.6 582.4 128 512 128L512 128z"  /></svg>